<?xml version="1.0" encoding="UTF-8" standalone="no"?>
<svg width="163px" height="111px" viewBox="0 0 163 111" version="1.1" xmlns="http://www.w3.org/2000/svg" xmlns:xlink="http://www.w3.org/1999/xlink" xmlns:sketch="http://www.bohemiancoding.com/sketch/ns">
    <!-- Generator: Sketch 3.2.2 (9983) - http://www.bohemiancoding.com/sketch -->
    <title>Artboard 3</title>
    <desc>Created with Sketch.</desc>
    <defs></defs>
    <g id="Page-1" stroke="none" stroke-width="1" fill="none" fill-rule="evenodd" sketch:type="MSPage">
        <g id="Artboard-3" sketch:type="MSArtboardGroup" stroke="#FF90A2" stroke-width="4.5">
            <g id="sweet-treats" sketch:type="MSLayerGroup" transform="translate(2.000000, 1.000000)">
                <g id="Group" transform="translate(0.233083, 0.599114)" sketch:type="MSShapeGroup">
                    <path d="M11.7720945,62.9945124 C26.7980881,61.7957062 19.2850913,61.1963031 34.3110849,59.9974969 C49.3370784,58.7986907 50.0883781,62.3951093 65.8656713,61.1963031 C80.8916649,59.9974969 80.8916649,56.4010783 95.9176584,55.2022721 C111.694952,54.0034659 111.694952,57.5998845 127.472245,56.4010783 C143.249538,55.2022721 140.244339,51.6058535 155.270333,50.4070473" id="Shape"></path>
                    <path d="M23.7928894,60.5969 C23.7928894,60.5969 22.29029,23.4339078 65.8656713,12.644652" id="Shape"></path>
                    <path d="M154.519033,70.1873496 C139.49304,71.3861558 140.244339,74.9825744 125.969646,76.1813806 C110.943652,77.3801868 110.943652,73.7837682 95.9176584,74.9825744 C80.8916649,76.1813806 81.6429646,79.7777992 67.3682707,80.9766054 C52.3422771,82.1754116 52.3422771,78.578993 37.3162836,79.7777992 C22.29029,80.9766054 22.29029,83.9736209 7.26429646,85.1724271" id="Shape"></path>
                    <path id="Shape"></path>
                    <path id="Shape"></path>
                    <path id="Shape"></path>
                    <path id="Shape"></path>
                    <path id="Shape"></path>
                    <path id="Shape"></path>
                    <g id="Shape">
                        <path d="M31.3058861,16.8404737 C26.0467884,15.6416675 26.0467884,10.2470396 32.8084855,5.45181477 C37.3162836,2.45479927 44.0779807,0.656589968 50.0883781,0.0571868682 C50.0883781,0.0571868682 68.1195704,-1.14161933 65.1143716,12.644652 L159.026831,51.6058535 L159.026831,90.567055 L11.0207948,104.952729"></path>
                        <path d="M31.3058861,16.8404737 C26.0467884,15.0422644 16.2798926,18.638683 11.7720945,24.632714 C7.26429646,30.626745 9.51819549,35.4219698 14.0259936,36.0213729"></path>
                        <path d="M14.0259936,35.4219698 C8.76689581,34.8225667 2.00519871,39.6177915 0.502599356,45.6118225 C-1,51.6058535 2.75649839,55.8016752 7.26429646,55.8016752 L7.26429646,105.552132"></path>
                    </g>
                </g>
            </g>
        </g>
    </g>
</svg>